# xmcd
#
# Track frame offsets:
#	150
#	13937
#	40026
#	55920
#	83526
#	100230
#	121784
#	143298
#	162685
#	172524
#	192211
#	200419
#	213529
#	233173
#	258309
#
# Disc length: 3685 seconds
#
# Revision: 1
# Processed by: cddbd v1.5.2PL0 Copyright (c) Steve Scherf et al.
# Submitted via: audiograbber 1.83.01
#
DISCID=bc0e630f
DTITLE=Richard Smerin - Under the Influence
DYEAR=2014
DGENRE=
TTITLE0=Water Bored
TTITLE1=Now that you're alone
TTITLE2=Valaida Snow
TTITLE3=Evolution of the Blues
TTITLE4=Rag Queen of Camden Town Road
TTITLE5=Love of the Lord
TTITLE6=Dying in my Dreams
TTITLE7=Place in the Sun
TTITLE8=One more Year
TTITLE9=No Resources to pay
TTITLE10=Way forward (is back)
TTITLE11=Your Respect
TTITLE12=Chrysanthemum Joe
TTITLE13=Busking in the Street
TTITLE14=Under the Influence (of you)
EXTD=
EXTT0=
EXTT1=
EXTT2=
EXTT3=
EXTT4=
EXTT5=
EXTT6=
EXTT7=
EXTT8=
EXTT9=
EXTT10=
EXTT11=
EXTT12=
EXTT13=
EXTT14=
PLAYORDER=
